<svg width="385" height="362" viewBox="0 0 385 362" fill="none" xmlns="http://www.w3.org/2000/svg">
<g clip-path="url(#clip0_1_176)">
<path d="M70.1955 42.6962C69.4721 42.7914 68.775 43.0745 68.1533 43.5257C67.5316 43.9768 67.0005 44.585 66.5973 45.3074C66.1941 46.0298 65.9286 46.8488 65.8196 47.7067C65.7105 48.5647 65.7606 49.4407 65.9662 50.2731L51.5728 62.5365L60.1524 66.4732L72.5053 54.2241C73.6552 53.7195 74.6099 52.7295 75.1885 51.4417C75.7671 50.1539 75.9295 48.6578 75.6448 47.2369C75.36 45.8159 74.6481 44.5689 73.6437 43.732C72.6394 42.8951 71.4125 42.5266 70.1955 42.6962Z" fill="#FFB8B8"/>
<path d="M68.8569 61.1682L51.0033 82.5872C48.5565 85.5037 45.3301 87.306 41.8847 87.6809L19.8235 90.0809C19.0147 90.1729 18.1987 90.0707 17.4236 89.7803C16.6485 89.4898 15.9301 89.0171 15.3109 88.3901C14.4542 87.5351 13.8171 86.4093 13.4729 85.142C13.1287 83.8748 13.0912 82.5174 13.3649 81.226C13.6386 79.9345 14.2122 78.7612 15.02 77.841C15.8278 76.9208 16.8368 76.2909 17.9313 76.0237L40.4693 70.3018L60.9884 52.2674C61.2737 52.076 61.596 51.9769 61.9233 51.9798C62.2506 51.9827 62.5716 52.0876 62.8545 52.284L68.4346 57.7344C68.7703 57.9537 69.04 58.2929 69.2058 58.7043C69.3717 59.1158 69.4253 59.5788 69.3592 60.0284C69.2941 60.4609 69.1187 60.8589 68.8569 61.1682Z" fill="#2F2E41"/>
<path d="M282.91 72.6792C283.043 71.217 282.795 69.7415 282.2 68.4532C281.605 67.1649 280.692 66.1263 279.585 65.4785L168.474 0.72832C167.768 0.316155 167 0.0739576 166.215 0.0155649C165.43 -0.0428277 164.643 0.0837225 163.899 0.387992C163.155 0.692262 162.468 1.1683 161.879 1.78891C161.289 2.40952 160.807 3.16255 160.462 4.00502L160.46 4.00999L118.786 105.673C118.091 107.376 117.99 109.338 118.506 111.13C119.022 112.921 120.112 114.395 121.538 115.23L232.649 179.98C234.077 180.809 235.723 180.929 237.225 180.314C238.727 179.699 239.964 178.399 240.663 176.698L282.337 75.0348C282.641 74.2953 282.835 73.4982 282.91 72.6792Z" fill="#F2F2F2"/>
<path d="M217.818 298.321H73.6467C71.8316 298.319 70.0915 297.458 68.808 295.928C67.5245 294.397 66.8026 292.323 66.8006 290.158V56.7979C66.8026 54.6337 67.5245 52.5589 68.808 51.0286C70.0915 49.4983 71.8316 48.6375 73.6467 48.6351H217.818C219.633 48.6375 221.373 49.4983 222.657 51.0286C223.94 52.5589 224.662 54.6337 224.664 56.7979V290.158C224.662 292.323 223.94 294.397 222.657 295.928C221.373 297.458 219.633 298.319 217.818 298.321Z" fill="white"/>
<path d="M111.886 118.221C117.081 118.221 121.292 113.2 121.292 107.006C121.292 100.812 117.081 95.791 111.886 95.791C106.691 95.791 102.48 100.812 102.48 107.006C102.48 113.2 106.691 118.221 111.886 118.221Z" fill="#E6E6E6"/>
<path d="M97.5498 137.658C98.8789 138.559 100.27 139.323 101.708 139.943L101.962 140.048C104.858 141.26 107.906 141.877 110.975 141.873C111.593 141.873 112.187 141.847 112.743 141.797C114.096 141.698 115.44 141.477 116.765 141.136C117.491 140.947 118.216 140.72 118.917 140.463C119.087 140.404 119.244 140.345 119.416 140.281C122.273 139.176 124.958 137.518 127.362 135.371C127.169 134.936 126.958 134.513 126.729 134.103C125.493 131.851 123.805 130.001 121.818 128.723C119.831 127.444 117.609 126.776 115.351 126.78H110.401C107.789 126.78 105.233 127.676 103.037 129.359C100.841 131.043 99.0962 133.444 98.0117 136.276C97.8384 136.727 97.6842 137.188 97.5498 137.658Z" fill="#E6E6E6"/>
<path d="M115.078 140.857C114.762 140.884 114.458 141.012 114.196 141.225C115.524 141.127 116.843 140.908 118.142 140.572L115.078 140.857Z" fill="#2F2E41"/>
<path d="M112.456 76.5721C106.398 76.5728 100.51 78.9579 95.7049 83.3572C90.9001 87.7564 87.4478 93.9238 85.8836 100.902C84.3194 107.88 84.731 115.279 87.0544 121.95C89.3778 128.62 93.4831 134.19 98.733 137.794C100.127 138.756 101.59 139.568 103.104 140.22L103.362 140.326C106.284 141.55 109.359 142.172 112.456 142.168C113.055 142.168 113.654 142.144 114.243 142.091C115.607 141.991 116.962 141.768 118.298 141.424C119.045 141.23 119.778 140.999 120.471 140.746C120.639 140.687 120.797 140.627 120.971 140.563C127.197 138.145 132.496 133.158 135.914 126.499C139.333 119.84 140.647 111.945 139.621 104.234C138.595 96.5227 135.296 89.5009 130.317 84.4305C125.337 79.36 119.004 76.5736 112.456 76.5721ZM128.416 133.94C126.043 136.123 123.372 137.803 120.52 138.904C120.367 138.963 120.208 139.022 120.05 139.081C119.392 139.323 118.699 139.535 117.986 139.718C116.722 140.047 115.44 140.26 114.149 140.356C113.59 140.403 113.02 140.427 112.456 140.427C109.525 140.429 106.614 139.84 103.847 138.685L103.605 138.585C102.098 137.94 100.646 137.125 99.2677 136.153C94.4685 132.784 90.7021 127.669 88.522 121.559C86.3418 115.448 85.8628 108.666 87.1555 102.207C88.4481 95.7478 91.4442 89.9535 95.7034 85.6754C99.9626 81.3972 105.26 78.8608 110.818 78.4387C116.376 78.0167 121.901 79.7313 126.581 83.3306C131.261 86.9299 134.849 92.2241 136.819 98.4353C138.788 104.646 139.035 111.447 137.522 117.838C136.01 124.228 132.818 129.872 128.416 133.94Z" fill="#CCCCCC"/>
<path d="M217.818 298.321H73.6467C71.8316 298.319 70.0915 297.458 68.808 295.928C67.5245 294.397 66.8026 292.323 66.8006 290.158V56.7979C66.8026 54.6337 67.5245 52.5589 68.808 51.0286C70.0915 49.4983 71.8316 48.6375 73.6467 48.6351H217.818C219.633 48.6375 221.373 49.4983 222.657 51.0286C223.94 52.5589 224.662 54.6337 224.664 56.7979V290.158C224.662 292.323 223.94 294.397 222.657 295.928C221.373 297.458 219.633 298.319 217.818 298.321ZM73.6467 49.5954C72.0452 49.5975 70.5097 50.3571 69.3773 51.7073C68.2448 53.0576 67.6078 54.8883 67.606 56.7979V290.158C67.6078 292.068 68.2448 293.899 69.3773 295.249C70.5097 296.599 72.0452 297.359 73.6467 297.361H217.818C219.419 297.359 220.955 296.599 222.087 295.249C223.22 293.899 223.857 292.068 223.859 290.158V56.7979C223.857 54.8883 223.22 53.0576 222.087 51.7073C220.955 50.3571 219.419 49.5976 217.818 49.5954L73.6467 49.5954Z" fill="#CCCCCC"/>
<path d="M189.908 109.243H149.113C148.257 109.243 147.436 108.838 146.83 108.116C146.225 107.395 145.885 106.416 145.885 105.395C145.885 104.375 146.225 103.396 146.83 102.674C147.436 101.953 148.257 101.547 149.113 101.547H189.908C190.764 101.547 191.585 101.953 192.19 102.674C192.795 103.396 193.135 104.375 193.135 105.395C193.135 106.416 192.795 107.395 192.19 108.116C191.585 108.838 190.764 109.243 189.908 109.243Z" fill="#E6E6E6"/>
<path d="M203.221 122.231H149.113C148.257 122.231 147.436 121.825 146.83 121.104C146.225 120.382 145.885 119.403 145.885 118.383C145.885 117.362 146.225 116.383 146.83 115.662C147.436 114.94 148.257 114.535 149.113 114.535H203.221C204.077 114.535 204.898 114.94 205.503 115.662C206.108 116.383 206.448 117.362 206.448 118.383C206.448 119.403 206.108 120.382 205.503 121.104C204.898 121.825 204.077 122.231 203.221 122.231Z" fill="#E6E6E6"/>
<path d="M189.849 172.043H88.2435C87.3876 172.043 86.5667 171.637 85.9614 170.916C85.3562 170.194 85.0161 169.215 85.0161 168.195C85.0161 167.174 85.3562 166.195 85.9614 165.474C86.5667 164.752 87.3876 164.346 88.2435 164.346H189.849C190.705 164.346 191.525 164.752 192.131 165.474C192.736 166.195 193.076 167.174 193.076 168.195C193.076 169.215 192.736 170.194 192.131 170.916C191.525 171.637 190.705 172.043 189.849 172.043Z" fill="#E6E6E6"/>
<path d="M203.162 185.03H88.2435C87.3876 185.03 86.5667 184.625 85.9614 183.903C85.3562 183.181 85.0161 182.202 85.0161 181.182C85.0161 180.161 85.3562 179.183 85.9614 178.461C86.5667 177.739 87.3876 177.334 88.2435 177.334H203.162C204.018 177.334 204.838 177.739 205.444 178.461C206.049 179.183 206.389 180.161 206.389 181.182C206.389 182.202 206.049 183.181 205.444 183.903C204.838 184.625 204.018 185.03 203.162 185.03Z" fill="#E6E6E6"/>
<path d="M189.849 214.88H88.2435C87.3876 214.88 86.5667 214.474 85.9614 213.753C85.3562 213.031 85.0161 212.052 85.0161 211.032C85.0161 210.011 85.3562 209.032 85.9614 208.311C86.5667 207.589 87.3876 207.184 88.2435 207.184H189.849C190.705 207.184 191.525 207.589 192.131 208.311C192.736 209.032 193.076 210.011 193.076 211.032C193.076 212.052 192.736 213.031 192.131 213.753C191.525 214.474 190.705 214.88 189.849 214.88Z" fill="#E6E6E6"/>
<path d="M203.162 227.867H88.2435C87.3876 227.867 86.5667 227.462 85.9614 226.74C85.3562 226.019 85.0161 225.04 85.0161 224.019C85.0161 222.999 85.3562 222.02 85.9614 221.298C86.5667 220.576 87.3876 220.171 88.2435 220.171H203.162C204.018 220.171 204.838 220.576 205.444 221.298C206.049 222.02 206.389 222.999 206.389 224.019C206.389 225.04 206.049 226.019 205.444 226.74C204.838 227.462 204.018 227.867 203.162 227.867Z" fill="#E6E6E6"/>
<path d="M189.849 257.717H88.2435C87.3876 257.717 86.5667 257.312 85.9614 256.59C85.3562 255.868 85.0161 254.89 85.0161 253.869C85.0161 252.848 85.3562 251.87 85.9614 251.148C86.5667 250.426 87.3876 250.021 88.2435 250.021H189.849C190.705 250.021 191.525 250.426 192.131 251.148C192.736 251.87 193.076 252.848 193.076 253.869C193.076 254.89 192.736 255.868 192.131 256.59C191.525 257.312 190.705 257.717 189.849 257.717Z" fill="#E6E6E6"/>
<path d="M203.162 270.705H88.2435C87.3876 270.705 86.5667 270.299 85.9614 269.577C85.3562 268.856 85.0161 267.877 85.0161 266.856C85.0161 265.836 85.3562 264.857 85.9614 264.135C86.5667 263.414 87.3876 263.008 88.2435 263.008H203.162C204.017 263.01 204.837 263.416 205.441 264.137C206.046 264.859 206.385 265.837 206.385 266.856C206.385 267.876 206.046 268.854 205.441 269.576C204.837 270.297 204.017 270.703 203.162 270.705Z" fill="#E6E6E6"/>
<path d="M277.96 139.379C278.093 137.917 277.845 136.441 277.25 135.153C276.655 133.865 275.742 132.826 274.634 132.178L163.524 67.428C162.817 67.0159 162.05 66.7737 161.265 66.7153C160.479 66.6569 159.692 66.7834 158.948 67.0877C158.204 67.392 157.518 67.868 156.928 68.4886C156.338 69.1092 155.857 69.8623 155.511 70.7047L155.509 70.7097L113.836 172.373C113.14 174.076 113.039 176.038 113.555 177.829C114.071 179.621 115.162 181.095 116.588 181.929L227.698 246.679C229.126 247.509 230.772 247.629 232.274 247.014C233.777 246.399 235.013 245.098 235.713 243.398L277.386 141.735C277.691 140.995 277.885 140.198 277.96 139.379Z" fill="white"/>
<path d="M277.96 139.379C278.093 137.917 277.845 136.441 277.25 135.153C276.655 133.865 275.742 132.826 274.634 132.178L163.524 67.428C162.817 67.0159 162.05 66.7737 161.265 66.7153C160.479 66.6569 159.692 66.7834 158.948 67.0877C158.204 67.392 157.518 67.868 156.928 68.4886C156.338 69.1092 155.857 69.8623 155.511 70.7047L155.509 70.7097L113.836 172.373C113.14 174.076 113.039 176.038 113.555 177.829C114.071 179.621 115.162 181.095 116.588 181.929L227.698 246.679C229.126 247.509 230.772 247.629 232.274 247.014C233.777 246.399 235.013 245.098 235.713 243.398L277.386 141.735C277.691 140.995 277.885 140.198 277.96 139.379ZM235.08 243.029C234.463 244.529 233.372 245.677 232.046 246.22C230.72 246.763 229.268 246.656 228.008 245.924L116.898 181.174C115.639 180.438 114.676 179.137 114.221 177.557C113.766 175.976 113.855 174.245 114.469 172.742L156.143 71.0788C156.76 69.5781 157.851 68.4305 159.176 67.8877C160.502 67.3449 161.954 67.4511 163.214 68.1832L274.325 132.933C275.583 133.669 276.546 134.97 277.001 136.551C277.456 138.132 277.367 139.863 276.753 141.365L235.08 243.029Z" fill="#3F3D56"/>
<path d="M265.841 144.001L236.742 214.99C236.547 215.464 236.203 215.826 235.785 215.998C235.367 216.169 234.908 216.136 234.511 215.904L133.441 157.005C133.369 156.964 133.3 156.915 133.235 156.86C132.903 156.591 132.664 156.189 132.561 155.727C132.459 155.264 132.499 154.774 132.675 154.344L161.774 83.356C161.87 83.1213 162.004 82.9115 162.168 82.7386C162.332 82.5656 162.524 82.4329 162.731 82.348C162.938 82.2631 163.157 82.2277 163.375 82.2438C163.594 82.2598 163.808 82.3271 164.005 82.4417L265.074 141.341C265.472 141.572 265.776 141.982 265.92 142.481C266.064 142.98 266.035 143.526 265.841 144L265.841 144.001Z" fill="#E6E6E6"/>
<path d="M177.109 140.396C185.193 140.396 191.746 132.583 191.746 122.944C191.746 113.306 185.193 105.492 177.109 105.492C169.025 105.492 162.472 113.306 162.472 122.944C162.472 132.583 169.025 140.396 177.109 140.396Z" fill="#10004F"/>
<path d="M198.54 195.295L134.029 157.7C133.947 157.654 133.87 157.599 133.797 157.537L190.139 112.303C190.486 112.019 190.89 111.85 191.31 111.813C191.729 111.777 192.15 111.873 192.528 112.094C192.906 112.314 193.228 112.65 193.462 113.068C193.696 113.485 193.832 113.969 193.857 114.47L197 168.691L197.151 171.286L198.54 195.295Z" fill="#3F3D56"/>
<path opacity="0.2" d="M198.54 195.295L176.515 182.459L195.003 170.034L196.334 169.139L197 168.691L197.151 171.286L198.54 195.295Z" fill="black"/>
<path d="M234.46 216.227L178.663 183.711L197.151 171.286L198.482 170.39L222.575 154.197C224.155 153.136 226.418 154.332 226.931 156.362C226.965 156.5 226.991 156.64 227.01 156.782L234.46 216.227Z" fill="#3F3D56"/>
<path d="M62.2993 222.423L68.3681 222.423L71.2557 194.51L62.2978 194.511L62.2993 222.423Z" fill="#FFB8B8"/>
<path d="M60.7509 220.061L72.7033 220.06C73.7036 220.06 74.6946 220.295 75.6188 220.751C76.5429 221.208 77.3826 221.877 78.0899 222.72C78.7973 223.563 79.3583 224.564 79.7411 225.666C80.1239 226.768 80.3209 227.949 80.3209 229.142V229.437L60.7513 229.438L60.7509 220.061Z" fill="#2F2E41"/>
<path d="M15.1243 217.816L21.4125 219.282L29.1491 191.061L19.8689 188.897L15.1243 217.816Z" fill="#FFB8B8"/>
<path d="M13.9222 214.994L26.3056 217.882L26.3061 217.882C27.3424 218.124 28.3287 218.606 29.2086 219.303C30.0885 219.999 30.8447 220.895 31.4342 221.939C32.0236 222.984 32.4347 224.157 32.6439 225.391C32.8532 226.625 32.8565 227.897 32.6538 229.132L32.6036 229.438L12.3283 224.709L13.9222 214.994Z" fill="#2F2E41"/>
<path d="M71.129 126.139C70.9235 125.306 70.5675 124.538 70.0859 123.887C69.6044 123.236 69.009 122.72 68.3418 122.373C67.6746 122.026 66.9518 121.858 66.2243 121.881C65.4967 121.903 64.7822 122.116 64.131 122.503L51.4804 107.759L49.7349 118.521L62.0157 130.872C62.6341 132.133 63.619 133.08 64.7838 133.534C65.9486 133.987 67.2124 133.915 68.3357 133.332C69.4591 132.748 70.3639 131.694 70.8787 130.368C71.3935 129.042 71.4826 127.537 71.129 126.139Z" fill="#FFB8B8"/>
<path d="M24.1936 50.2473C30.9088 50.2473 36.3526 43.7565 36.3526 35.7498C36.3526 27.7431 30.9088 21.2523 24.1936 21.2523C17.4784 21.2523 12.0347 27.7431 12.0347 35.7498C12.0347 43.7565 17.4784 50.2473 24.1936 50.2473Z" fill="#FFB8B8"/>
<path d="M21.6404 50.4692C22.2864 50.8063 23.6094 44.6685 23.0168 43.4409C22.1355 41.6153 22.1876 41.6284 21.6025 40.4205C21.0174 39.2127 20.8865 37.5594 21.6442 36.4967C22.4018 35.4339 24.1551 35.5749 24.5008 36.9074C24.2784 34.3765 26.378 32.342 28.4578 31.7702C30.5375 31.1985 32.7313 31.5535 34.8225 31.0447C37.2494 30.4543 39.7746 28.0286 38.8063 24.8465C38.6401 24.3167 38.3913 23.8292 38.0731 23.4098C36.9543 21.91 35.3893 21.2695 33.8592 20.6503C30.676 19.3621 27.4057 18.0577 24.0462 18.1999C21.2782 18.3724 18.6124 19.5034 16.3751 21.4543C14.1377 23.4052 12.4259 26.0914 11.449 29.1842C11.2175 29.958 11.0381 30.7525 10.9127 31.5602C9.75956 38.9528 13.36 46.2448 19.2078 49.0599L21.6404 50.4692Z" fill="#2F2E41"/>
<path d="M18.6551 130.11C18.345 129.886 18.0965 129.56 17.9401 129.17C17.7837 128.78 17.7263 128.344 17.775 127.916L12.2883 95.5097L6.72672 70.6391C6.11615 67.9139 6.30067 65.0222 7.24979 62.4384C8.19891 59.8545 9.85637 57.7321 11.9503 56.4192L15.627 52.2712L23.648 56.3915L27.4594 61.0122C30.1931 62.5992 32.6181 64.8507 34.5785 67.622C36.5388 70.3932 37.9912 73.6228 38.8422 77.1032L44.9553 102.045L59.0729 127.088C59.3086 127.505 59.4188 128.005 59.3856 128.507C59.3524 129.008 59.1777 129.482 58.89 129.85C56.926 132.369 18.6551 130.11 18.6551 130.11Z" fill="#2F2E41"/>
<path d="M55.6421 127.808L34.8247 110.608C31.9874 108.247 29.9333 104.776 29.0194 100.797L23.1678 75.322C22.95 74.3888 22.8913 73.413 22.9951 72.4522C23.0989 71.4915 23.3632 70.5653 23.7724 69.7284C24.328 68.5727 25.1458 67.6274 26.1318 67.0011C27.1178 66.3747 28.232 66.0927 29.3464 66.1874C30.4607 66.2821 31.5301 66.7496 32.4316 67.5364C33.3331 68.3232 34.0302 69.3972 34.4428 70.6351L43.1209 96.0873L61.6111 117.01C61.8192 117.311 61.9576 117.672 62.0126 118.057C62.0676 118.442 62.0373 118.837 61.9247 119.203L58.4033 126.71C58.281 127.142 58.0483 127.518 57.7377 127.785C57.427 128.052 57.0541 128.196 56.6713 128.197C56.3028 128.197 55.9433 128.061 55.6421 127.808Z" fill="#2F2E41"/>
<path d="M12.3943 213.496C12.2241 213.205 12.1152 212.869 12.0766 212.518C12.038 212.166 12.071 211.808 12.1728 211.475L21.8033 169.732L22.5152 128.83L54.9343 126.179L55.0917 126.166L64.8561 147.267C67.9132 153.865 69.7847 161.149 70.3514 168.656L73.5692 210.7C73.6178 211.271 73.4765 211.843 73.1756 212.291C72.8747 212.74 72.4382 213.03 71.9599 213.099L62.1848 214.207C61.7139 214.276 61.2391 214.122 60.8619 213.779C60.4847 213.436 60.2348 212.931 60.1656 212.371L56.1962 169.646L41.9142 140.874L37.1201 171.165L27.188 212.996C27.0581 213.414 26.8248 213.775 26.519 214.03C26.2132 214.286 25.8494 214.425 25.4759 214.428L13.8917 214.434C13.5967 214.436 13.306 214.351 13.0449 214.187C12.7838 214.024 12.5604 213.786 12.3943 213.496Z" fill="#2F2E41"/>
<path d="M260.627 350.785H16.3367C12.0054 350.779 7.85298 348.725 4.79031 345.073C1.72765 341.422 0.00489259 336.471 0 331.306V171.345C0.00489259 166.181 1.72765 161.229 4.79031 157.578C7.85298 153.926 12.0054 151.872 16.3367 151.866H46.2887C50.3526 151.862 54.2714 153.668 57.2764 156.93L89.7575 184.585C91.8751 186.892 94.6407 188.17 97.5093 188.167H262.144C264.309 188.167 266.453 188.681 268.451 189.677C270.448 190.674 272.26 192.135 273.78 193.974C275.3 195.813 276.498 197.994 277.305 200.39C278.111 202.786 278.511 205.349 278.479 207.931L276.962 331.591C276.882 336.701 275.128 341.57 272.075 345.157C269.022 348.744 264.913 350.764 260.627 350.785Z" fill="#E2E2E2"/>
<path d="M258.457 341.341H17.782C15.6925 341.338 13.6894 340.347 12.2119 338.585C10.7345 336.824 9.90339 334.435 9.90103 331.944V169.367C9.9034 166.876 10.7345 164.487 12.2119 162.726C13.6894 160.964 15.6925 159.973 17.782 159.97C19.6301 159.973 21.4018 160.849 22.7086 162.407C24.0154 163.966 24.7505 166.078 24.7526 168.282V320.729C24.7548 323.064 25.5337 325.302 26.9183 326.953C28.303 328.604 30.1803 329.533 32.1385 329.535H257.644C258.764 329.521 259.856 329.954 260.746 330.765C261.636 331.577 262.272 332.721 262.553 334.014C262.867 335.24 262.828 336.557 262.441 337.753C262.055 338.95 261.343 339.958 260.42 340.616C259.835 341.07 259.155 341.321 258.457 341.341Z" fill="#F2F2F2"/>
<path d="M140.31 263.265L139.676 262.51C139.545 262.363 139.468 262.16 139.462 261.946C139.456 261.731 139.522 261.523 139.645 261.367C139.655 261.354 139.665 261.341 139.676 261.329L145.235 254.694C145.296 254.617 145.369 254.554 145.45 254.511C145.532 254.467 145.619 254.442 145.708 254.439C145.797 254.435 145.886 254.453 145.969 254.49C146.053 254.528 146.129 254.584 146.194 254.657C146.205 254.669 146.215 254.681 146.226 254.694L151.785 261.323C151.85 261.398 151.902 261.487 151.938 261.586C151.974 261.685 151.993 261.791 151.995 261.899C151.997 262.007 151.98 262.114 151.947 262.214C151.914 262.314 151.865 262.406 151.802 262.483L151.785 262.504L151.151 263.259C151.089 263.337 151.014 263.399 150.931 263.442C150.848 263.485 150.759 263.508 150.668 263.51C150.578 263.512 150.488 263.492 150.404 263.453C150.32 263.413 150.243 263.354 150.178 263.28L150.161 263.259L146.874 259.127V268.932C146.875 269.039 146.858 269.145 146.824 269.244C146.79 269.343 146.74 269.433 146.677 269.509C146.614 269.585 146.54 269.646 146.457 269.688C146.374 269.729 146.286 269.751 146.196 269.752L146.191 269.752H145.275C145.093 269.752 144.917 269.666 144.788 269.512C144.659 269.358 144.587 269.149 144.587 268.932V259.139L141.3 263.271C141.172 263.427 140.998 263.516 140.816 263.519C140.633 263.521 140.457 263.437 140.327 263.286L140.31 263.265Z" fill="#10004F"/>
<path d="M145.721 248.668C147.952 248.668 150.133 249.457 151.989 250.935C153.844 252.413 155.29 254.514 156.144 256.972C156.998 259.43 157.221 262.135 156.786 264.744C156.351 267.354 155.276 269.751 153.698 271.632C152.12 273.513 150.11 274.795 147.922 275.314C145.733 275.833 143.465 275.566 141.403 274.548C139.341 273.53 137.579 271.806 136.34 269.594C135.1 267.381 134.438 264.781 134.438 262.12C134.441 258.553 135.63 255.133 137.746 252.611C139.861 250.089 142.729 248.671 145.721 248.668ZM145.721 246.897C143.195 246.897 140.727 247.79 138.627 249.463C136.528 251.135 134.891 253.513 133.925 256.294C132.959 259.076 132.706 262.137 133.198 265.09C133.691 268.043 134.907 270.755 136.693 272.884C138.478 275.013 140.753 276.463 143.23 277.05C145.706 277.638 148.273 277.336 150.606 276.184C152.939 275.032 154.933 273.081 156.336 270.577C157.739 268.074 158.488 265.131 158.488 262.12C158.488 258.083 157.143 254.211 154.748 251.356C152.354 248.501 149.107 246.897 145.721 246.897Z" fill="#3F3D56"/>
<path d="M260.627 350.785H16.3367C12.0054 350.779 7.85298 348.725 4.79031 345.073C1.72765 341.422 0.00489259 336.471 0 331.306V171.345C0.00489259 166.181 1.72765 161.229 4.79031 157.578C7.85298 153.926 12.0054 151.872 16.3367 151.866H46.2887C50.3526 151.862 54.2714 153.668 57.2764 156.93L89.7575 184.585C91.8751 186.892 94.6407 188.17 97.5093 188.167H262.144C264.309 188.167 266.453 188.681 268.451 189.677C270.448 190.674 272.26 192.135 273.78 193.974C275.3 195.813 276.498 197.994 277.305 200.39C278.111 202.786 278.511 205.349 278.479 207.931L276.962 331.591C276.882 336.701 275.128 341.57 272.075 345.157C269.022 348.744 264.913 350.764 260.627 350.785ZM16.3367 153.047C12.2679 153.052 8.36717 154.982 5.49013 158.412C2.61308 161.843 0.994727 166.494 0.990103 171.345V331.306C0.994727 336.158 2.61308 340.809 5.49013 344.239C8.36717 347.669 12.2679 349.599 16.3367 349.604H260.627C264.653 349.585 268.513 347.687 271.381 344.317C274.249 340.948 275.897 336.374 275.972 331.574L277.489 207.914C277.519 205.488 277.144 203.08 276.386 200.829C275.628 198.578 274.503 196.53 273.075 194.802C271.647 193.075 269.945 191.703 268.069 190.766C266.192 189.83 264.178 189.348 262.144 189.348H97.5093C94.404 189.351 91.4095 187.972 89.1122 185.481L56.6312 157.826C53.8058 154.748 50.116 153.043 46.2887 153.047H16.3367Z" fill="#3F3D56"/>
<path d="M281.33 353.899H275.261L273.364 325.987L281.331 325.987L281.33 353.899Z" fill="#FFB8B8"/>
<path d="M282.878 360.914L263.308 360.913V360.618C263.308 359.425 263.505 358.244 263.888 357.143C264.271 356.041 264.832 355.04 265.539 354.196C266.247 353.353 267.086 352.684 268.011 352.227C268.935 351.771 269.925 351.536 270.926 351.536L282.878 351.537L282.878 360.914Z" fill="#2F2E41"/>
<path d="M349.152 353.899H343.083L340.196 325.987L349.153 325.987L349.152 353.899Z" fill="#FFB8B8"/>
<path d="M350.7 360.914L331.13 360.913V360.618C331.13 359.425 331.327 358.244 331.71 357.143C332.093 356.041 332.654 355.04 333.361 354.196C334.069 353.353 334.908 352.684 335.833 352.227C336.757 351.771 337.747 351.536 338.748 351.536L350.7 351.537L350.7 360.914Z" fill="#2F2E41"/>
<path d="M329.196 267.611C330.034 266.44 330.506 264.96 330.532 263.421C330.559 261.882 330.138 260.38 329.341 259.17C329.179 258.938 329.002 258.722 328.81 258.525L333.382 238.402L325.763 241.416L322.59 260.063C322.063 261.213 321.83 262.522 321.92 263.827C322.009 265.133 322.417 266.379 323.093 267.412C323.447 267.969 323.901 268.425 324.422 268.744C324.944 269.064 325.519 269.24 326.105 269.259C326.691 269.279 327.273 269.14 327.808 268.855C328.343 268.57 328.818 268.145 329.196 267.611Z" fill="#FFB8B8"/>
<path d="M328.903 255.233C328.807 255.233 328.712 255.224 328.618 255.207L324.648 254.493C324.339 254.43 324.045 254.287 323.787 254.074C323.53 253.861 323.314 253.584 323.156 253.261C322.812 252.574 322.688 251.762 322.808 250.975L327.761 217.99L324.402 196.799C323.754 192.721 325.425 188.602 328.289 187.218C329.138 186.804 330.063 186.659 330.974 186.798C331.884 186.937 332.749 187.355 333.483 188.011C334.276 188.727 334.933 189.633 335.412 190.671C335.892 191.709 336.183 192.856 336.266 194.037L338.644 221.057L338.615 221.175L330.963 253.196C330.853 253.757 330.592 254.259 330.22 254.627C329.848 254.995 329.386 255.207 328.903 255.233Z" fill="#10004F"/>
<path d="M327.731 175.54C334.446 175.54 339.89 169.049 339.89 161.042C339.89 153.036 334.446 146.545 327.731 146.545C321.015 146.545 315.572 153.036 315.572 161.042C315.572 169.049 321.015 175.54 327.731 175.54Z" fill="#FFB8B8"/>
<path d="M321.505 228.433C321.202 228.433 320.902 228.366 320.62 228.236L301.401 219.423C300.881 219.186 300.443 218.747 300.159 218.176C299.875 217.605 299.761 216.936 299.836 216.278L300.608 209.376C300.15 206.929 300.193 204.387 300.731 201.964C301.269 199.541 302.288 197.307 303.702 195.452L304.17 194.838L309.856 182.475C310.241 181.638 310.762 180.899 311.387 180.303C312.013 179.706 312.732 179.263 313.502 179C314.272 178.736 315.078 178.656 315.874 178.766C316.669 178.875 317.439 179.172 318.139 179.638L328.179 186.328C329.501 187.207 330.499 188.644 330.976 190.356C332.328 195.204 332.227 200.46 330.693 205.229L323.818 226.541C323.637 227.097 323.319 227.574 322.906 227.912C322.494 228.249 322.006 228.431 321.505 228.433Z" fill="#10004F"/>
<path d="M271.14 347.046L271.114 347.04C270.786 346.965 270.474 346.811 270.198 346.589C269.921 346.366 269.685 346.079 269.503 345.745C269.322 345.411 269.199 345.037 269.142 344.644C269.085 344.252 269.096 343.851 269.172 343.463L283.899 266.706C286.31 254.537 289.641 242.655 293.851 231.204L300.116 214.171L323.496 226.897L326.834 234.176C329.437 242.284 330.775 250.89 330.783 259.571L354.538 342.581C354.654 342.986 354.695 343.416 354.657 343.842C354.62 344.268 354.505 344.679 354.321 345.047C354.137 345.415 353.888 345.73 353.591 345.971C353.294 346.213 352.957 346.374 352.603 346.445L339.598 346.27C339.476 346.296 339.351 346.308 339.227 346.307C338.734 346.308 338.252 346.131 337.844 345.801C337.436 345.472 337.121 345.003 336.939 344.457L309.783 260.529C309.744 260.418 309.678 260.323 309.593 260.258C309.508 260.193 309.408 260.16 309.307 260.164C309.208 260.166 309.112 260.204 309.032 260.273C308.952 260.343 308.892 260.44 308.86 260.551L283.094 344.896C282.896 345.552 282.509 346.103 282.003 346.45C281.496 346.797 280.902 346.918 280.327 346.791L271.14 347.046Z" fill="#2F2E41"/>
<path d="M288.919 252.653C289.605 252.363 290.228 251.896 290.747 251.287C291.265 250.677 291.664 249.94 291.918 249.126C292.171 248.313 292.271 247.443 292.212 246.578C292.153 245.713 291.935 244.874 291.575 244.121L303.22 228.242L294.111 226.761L284.449 242.067C283.428 242.873 282.689 244.098 282.374 245.51C282.059 246.922 282.189 248.422 282.74 249.727C283.291 251.032 284.225 252.051 285.363 252.59C286.502 253.129 287.767 253.152 288.919 252.653Z" fill="#FFB8B8"/>
<path d="M294.408 241.468C294.003 241.467 293.604 241.349 293.246 241.122L289.148 238.516C288.848 238.325 288.583 238.061 288.372 237.743C288.16 237.424 288.006 237.057 287.92 236.664C287.833 236.271 287.815 235.861 287.867 235.459C287.919 235.058 288.041 234.673 288.223 234.33L303.359 205.893L305.983 184.433C306.119 183.324 306.442 182.259 306.933 181.303C307.424 180.347 308.073 179.52 308.839 178.872C309.606 178.223 310.475 177.767 311.394 177.531C312.313 177.295 313.263 177.283 314.186 177.498C315.108 177.712 315.985 178.147 316.763 178.777C317.54 179.407 318.203 180.218 318.71 181.162C319.217 182.106 319.558 183.163 319.712 184.268C319.866 185.374 319.831 186.506 319.608 187.594L314.189 214.045L296.336 240.373C296.104 240.716 295.81 240.992 295.477 241.182C295.143 241.371 294.778 241.469 294.408 241.468Z" fill="#10004F"/>
<path d="M316.786 149.081C318.193 143.582 326.318 141.128 333.072 143.41C339.826 145.691 344.679 151.673 345.808 157.522C348.309 170.474 335.263 180.986 337.627 193.939C339.191 202.509 348.239 210.611 358.43 212.568C347.199 215.37 333.492 212.907 323.078 206.217C316.596 202.054 311.158 195.771 311.241 189.433C311.29 185.596 313.338 182.203 315.841 179.271C318.345 176.34 321.342 173.734 323.639 170.674C325.937 167.614 327.529 163.95 326.858 160.066C326.188 156.182 322.781 152.131 318.198 151.001L316.786 149.081Z" fill="#2F2E41"/>
<path d="M384.505 362H195.89C195.759 362 195.633 361.938 195.54 361.827C195.447 361.716 195.395 361.566 195.395 361.41C195.395 361.253 195.447 361.103 195.54 360.992C195.633 360.882 195.759 360.819 195.89 360.819H384.505C384.636 360.819 384.762 360.882 384.855 360.992C384.948 361.103 385 361.253 385 361.41C385 361.566 384.948 361.716 384.855 361.827C384.762 361.938 384.636 362 384.505 362Z" fill="#CCCCCC"/>
</g>
<defs>
<clipPath id="clip0_1_176">
<rect width="385" height="362" fill="white"/>
</clipPath>
</defs>
</svg>
